#!OML:ASF Y:\EmotionMaleHayes\Project 1\Capture day 1\Session 1\Male1.ASF
:FULLY-SPECIFIED
:DEGREES
688
root 6.81902 17.0833 0.105823 362.868 33.3953 372.899
lowerback 9.8983 0.950363 -14.3552
upperback 3.51993 -0.090051 -2.59135
thorax -1.77679 -0.0597529 5.31565
lowerneck -20.6653 5.92994 7.90644
upperneck 32.0704 7.87804 -5.00392
head 15.2224 3.68925 -1.90936
rclavicle -1.31347e-013 4.59193e-014
rhumerus -51.4421 -8.4458 -76.005
rradius 27.7192
rwrist 6.27272
rhand -7.64944 -29.1742
rfingers 7.12502
rthumb 18.2461 -58.3384
lclavicle -1.31347e-013 4.59193e-014
lhumerus -15.95 -11.9996 79.9991
lradius 52.0799
lwrist 8.46579
lhand -20.1517 -26.9241
lfingers 7.12502
lthumb 6.1934 2.96535
rfemur -23.1244 -7.46007 4.8364
rtibia 47.9468
rfoot -12.0788 -2.25827
rtoes 11.6178
lfemur 11.5499 -5.16594 -37.1206
ltibia 10.5243
lfoot -17.0918 4.07026
ltoes 2.97269
689
root 6.90862 17.0688 0.250888 363.158 33.6032 373.206
lowerback 9.79047 0.972321 -14.7421
upperback 3.52343 -0.0756181 -2.55667
thorax -1.7099 -0.0585208 5.56336
lowerneck -20.6224 5.88198 7.66686
upperneck 31.8976 7.8237 -4.83341
head 15.1044 3.66173 -1.80786
rclavicle -6.95746e-015 7.7526e-015
rhumerus -52.4416 -8.38925 -75.6857
rradius 28.2487
rwrist 4.54375
rhand -8.33513 -30.302
rfingers 7.12502
rthumb 17.5864 -59.5266
lclavicle -6.95746e-015 7.7526e-015
lhumerus -15.3382 -12.7847 79.928
lradius 52.7738
lwrist 9.10091
lhand -20.5979 -27.0482
lfingers 7.12502
lthumb 5.76258 2.8534
rfemur -23.497 -7.27182 4.43355
rtibia 45.2111
rfoot -12.1786 -2.99972
rtoes 12.5967
lfemur 12.3089 -4.7582 -37.2256
ltibia 10.0194
lfoot -17.2514 3.52706
ltoes 1.50427
690
root 6.99593 17.0471 0.395571 363.423 33.8717 373.263
lowerback 9.59726 0.975031 -14.9065
upperback 3.51889 -0.050405 -2.48207
thorax -1.60994 -0.0538573 5.73045
lowerneck -20.6568 5.7833 7.51532
upperneck 31.7068 7.68467 -4.7531
head 14.9993 3.59474 -1.77447
rclavicle 9.85227e-015 3.1408e-014
rhumerus -53.2068 -9.07516 -74.8767
rradius 28.3799
rwrist 3.92548
rhand -8.17215 -30.0666
rfingers 7.12502
rthumb 17.7432 -59.2771
lclavicle 9.85227e-015 3.1408e-014
lhumerus -14.7625 -13.4882 79.8682
lradius 53.5139
lwrist 9.6763
lhand -20.5025 -27.3713
lfingers 7.12502
lthumb 5.85471 2.52778
rfemur -23.7972 -7.08115 4.2478
rtibia 42.1171
rfoot -11.8487 -3.86676
rtoes 13.7974
lfemur 12.8937 -4.30007 -36.9852
ltibia 9.63709
lfoot -17.3584 2.78742
ltoes 0.569124
691
root 7.08218 17.0239 0.539773 363.68 34.2522 373.211
lowerback 9.39531 0.887085 -14.9107
upperback 3.51918 -0.128031 -2.42327
thorax -1.48095 -0.101538 5.80362
lowerneck -20.9716 5.8312 7.57259
upperneck 31.6972 7.71105 -4.7699
head 15.0718 3.60274 -1.77884
rclavicle 1.22874e-014 -2.49475e-014
rhumerus -53.8005 -9.75592 -74.1598
rradius 28.3678
rwrist 3.46236
rhand -6.76213 -28.318
rfingers 7.12502
rthumb 19.0996 -57.4002
lclavicle 1.22874e-014 -2.49475e-014
lhumerus -14.2346 -13.8444 79.7627
lradius 54.2429
lwrist 9.92102
lhand -20.3142 -27.6542
lfingers 7.12502
lthumb 6.03649 2.23978
rfemur -23.9872 -6.89569 4.12333
rtibia 38.7418
rfoot -11.1131 -4.84176
rtoes 14.7517
lfemur 13.4385 -4.19774 -36.6914
ltibia 9.27748
lfoot -17.5033 2.16825
ltoes 0.923162
692
root 7.19209 17.0039 0.689951 364.22 34.6555 373.793
lowerback 9.09717 0.757721 -15.179
upperback 3.54699 -0.262517 -2.59203
thorax -1.25289 -0.18375 5.78299
lowerneck -20.9195 5.8315 7.41469
upperneck 31.5453 7.69391 -4.57927
head 14.9697 3.60397 -1.67638
rclavicle 2.10712e-014 4.05521e-014
rhumerus -54.4491 -10.2725 -73.6438
rradius 28.3407
rwrist 3.11437
rhand -8.57973 -29.7507
rfingers 7.12502
rthumb 17.351 -58.9962
lclavicle 2.10712e-014 4.05521e-014
lhumerus -13.8165 -14.2445 79.5949
lradius 54.963
lwrist 10.0228
lhand -20.5067 -27.6562
lfingers 7.12502
lthumb 5.85063 2.24299
rfemur -23.787 -7.22251 3.16937
rtibia 35.1586
rfoot -10.1436 -5.07952
rtoes 16.6224
lfemur 14.2801 -4.40737 -37.3934
ltibia 8.75271
lfoot -17.7603 2.04714
ltoes -0.156199
693
root 7.28538 16.9818 0.832831 364.798 35.1545 374.353
lowerback 9.05673 0.651497 -15.6069
upperback 3.46427 -0.439371 -2.64603
thorax -1.27319 -0.267139 5.97709
lowerneck -21.0815 5.85392 7.48652
upperneck 31.5713 7.70296 -4.61947
head 15.0249 3.60741 -1.69977
rclavicle 6.06666e-014 -8.61732e-014
rhumerus -55.1953 -10.8667 -72.8072
rradius 28.317
rwrist 3.26
rhand -8.97038 -29.6068
rfingers 7.12502
rthumb 16.975 -58.885
lclavicle 6.06666e-014 -8.61732e-014
lhumerus -13.5823 -14.6186 79.6055
lradius 55.7277
lwrist 10.0296
lhand -20.6515 -27.8016
lfingers 7.12502
lthumb 5.71085 2.10146
rfemur -23.5341 -7.15715 2.16748
rtibia 31.4684
rfoot -9.16524 -5.18521
rtoes 21.2824
lfemur 14.9511 -4.92887 -38.0719
ltibia 8.41282
lfoot -18.0727 2.1742
ltoes -0.909954
694
root 7.37153 16.9522 0.973288 365.431 35.7527 374.787
lowerback 8.98117 0.557576 -16.0111
upperback 3.36658 -0.592167 -2.60992
thorax -1.29292 -0.338581 6.25178
lowerneck -21.164 5.80963 7.44042
upperneck 31.4962 7.66588 -4.68331
head 15.0065 3.57566 -1.7237
rclavicle 7.34261e-015 -2.78299e-015
rhumerus -55.8485 -11.6002 -71.8059
rradius 28.2603
rwrist 3.46904
rhand -8.94604 -29.0264
rfingers 7.12502
rthumb 16.9984 -58.3026
lclavicle 7.34261e-015 -2.78299e-015
lhumerus -13.1698 -15.2209 79.6352
lradius 56.3972
lwrist 10.4636
lhand -20.3048 -28.2538
lfingers 7.12502
lthumb 6.04558 1.63993
rfemur -23.291 -6.47231 1.25214
rtibia 27.6357
rfoot -8.24996 -5.74301
rtoes 25.2505
lfemur 14.9146 -3.72363 -37.5278
ltibia 8.79306
lfoot -18.2816 -0.00806083
ltoes 1.26519
695
root 7.46127 16.9203 1.11713 365.706 36.2513 374.542
lowerback 8.7379 0.448271 -15.8171
upperback 3.30463 -0.679056 -2.4827
thorax -1.20821 -0.385568 6.28823
lowerneck -21.2466 5.82667 7.55565
upperneck 31.4028 7.6811 -4.81628
head 14.9968 3.5753 -1.79291
rclavicle -2.54693e-015 7.25564e-015
rhumerus -56.3287 -12.1033 -71.1374
rradius 28.1226
rwrist 3.44494
rhand -8.92119 -28.4104
rfingers 7.12502
rthumb 17.0223 -57.6846
lclavicle -2.54693e-015 7.25564e-015
lhumerus -12.7062 -15.8337 79.5557
lradius 57.0127
lwrist 10.944
lhand -20.0721 -28.5569
lfingers 7.12502
lthumb 6.27025 1.33029
rfemur -23.1967 -5.39028 1.00905
rtibia 23.9422
rfoot -7.40735 -6.56965
rtoes 25.914
lfemur 15.4033 -4.54349 -37.4418
ltibia 8.48389
lfoot -18.5305 0.249832
ltoes 2.61442
696
root 7.55482 16.8916 1.26737 365.779 36.4955 374.164
lowerback 8.51269 0.337531 -15.5613
upperback 3.26131 -0.766136 -2.34837
thorax -1.11491 -0.434156 6.29759
lowerneck -21.3832 5.92441 7.65326
upperneck 31.3493 7.79997 -4.89376
head 15.0222 3.6225 -1.81427
rclavicle 1.34552e-014 1.72943e-014
rhumerus -56.6729 -12.3614 -70.5323
rradius 27.8595
rwrist 3.76288
rhand -8.75715 -27.8577
rfingers 7.12502
rthumb 17.1802 -57.1182
lclavicle 1.34552e-014 1.72943e-014
lhumerus -12.437 -16.2134 79.4497
lradius 57.5863
lwrist 11.0247
lhand -20.3756 -28.6419
lfingers 7.12502
lthumb 5.97721 1.25374
rfemur -23.1253 -4.02619 0.820482
rtibia 20.5088
rfoot -6.9435 -7.07967
rtoes 26.9207
lfemur 15.9645 -4.84853 -37.0814
ltibia 8.16912
lfoot -18.8605 0.593881
ltoes 1.36987
697
root 7.64637 16.8552 1.41762 366.354 36.8346 374.586
lowerback 8.34175 0.199375 -15.9357
upperback 3.20325 -0.950248 -2.38058
thorax -1.03041 -0.529889 6.48234
lowerneck -21.575 6.03125 7.75603
upperneck 31.2986 7.94147 -5.01514
head 15.0664 3.67211 -1.84893
rclavicle -1.60891e-014 1.86361e-014
rhumerus -56.9597 -12.7788 -69.7945
rradius 27.4636
rwrist 4.59849
rhand -8.73751 -27.5445
rfingers 7.12502
rthumb 17.1991 -56.8033
lclavicle -1.60891e-014 1.86361e-014
lhumerus -12.2139 -16.6463 79.3625
lradius 58.0831
lwrist 10.7232
lhand -21.1182 -28.5398
lfingers 7.12502
lthumb 5.26022 1.37491
rfemur -23.1257 -3.0448 -0.254016
rtibia 17.2539
rfoot -6.63549 -7.43779
rtoes 26.9153
lfemur 16.1332 -4.25421 -36.8926
ltibia 8.38211
lfoot -19.326 -0.0680088
ltoes -1.50853
698
root 7.7476 16.8166 1.5718 367.044 37.2201 375.372
lowerback 8.12462 0.155218 -16.4746
upperback 3.23725 -0.999591 -2.48392
thorax -0.84559 -0.570654 6.66656
lowerneck -21.655 6.01251 7.6285
upperneck 31.124 7.939 -5.00786
head 14.996 3.65469 -1.82186
rclavicle -2.46617e-014 -1.77912e-014
rhumerus -57.2386 -13.1948 -69.2131
rradius 27.1345
rwrist 5.01841
rhand -9.33067 -27.4669
rfingers 7.12502
rthumb 16.6281 -56.7746
lclavicle -2.46617e-014 -1.77912e-014
lhumerus -11.8587 -17.0993 79.4764
lradius 58.4916
lwrist 10.1554
lhand -21.9012 -28.3076
lfingers 7.12502
lthumb 4.50422 1.62451
rfemur -23.0129 -2.50414 -1.64032
rtibia 14.2057
rfoot -6.01592 -7.42976
rtoes 23.1423
lfemur 16.2842 -3.12101 -36.7421
ltibia 8.85055
lfoot -19.7141 -1.6206
ltoes -2.20415
699
root 7.85394 16.7782 1.72431 367.65 37.7358 375.953
lowerback 7.90529 0.105127 -16.7113
upperback 3.28538 -1.02982 -2.55608
thorax -0.656862 -0.602181 6.71636
lowerneck -21.7282 5.92559 7.38667
upperneck 30.9375 7.82523 -4.85167
head 14.8953 3.59826 -1.73644
rclavicle -9.01178e-014 -6.09772e-014
rhumerus -57.42 -13.6407 -68.6896
rradius 26.8421
rwrist 5.08
rhand -10.2056 -27.8486
rfingers 7.12502
rthumb 15.7856 -57.225
lclavicle -9.01178e-014 -6.09772e-014
lhumerus -11.4396 -17.5207 79.6306
lradius 58.8418
lwrist 9.9173
lhand -22.0439 -28.4072
lfingers 7.12502
lthumb 4.36636 1.52778
rfemur -22.9449 -2.31439 -2.7362
rtibia 11.6945
rfoot -5.80285 -6.87487
rtoes 19.1501
lfemur 16.5423 -2.62341 -36.7268
ltibia 9.27247
lfoot -19.9744 -2.86293
ltoes -1.11407
700
root 7.95194 16.7372 1.87624 368.237 38.2504 376.43
lowerback 7.78556 0.0222084 -16.96
upperback 3.26775 -1.13206 -2.61619
thorax -0.577012 -0.658227 6.79292
lowerneck -21.7702 5.9378 7.49256
upperneck 30.7754 7.82016 -4.94863
head 14.8415 3.59387 -1.79332
rclavicle 1.04921e-014 -3.23522e-014
rhumerus -57.5475 -14.048 -68.1692
rradius 26.5139
rwrist 5.38343
rhand -10.6355 -28.3404
rfingers 7.12502
rthumb 15.3716 -57.749
lclavicle 1.04921e-014 -3.23522e-014
lhumerus -11.1995 -18.043 79.6698
lradius 59.1959
lwrist 9.8661
lhand -21.9766 -28.6831
lfingers 7.12502
lthumb 4.43133 1.25053
rfemur -23.0871 -2.74089 -3.48033
rtibia 9.75801
rfoot -6.15132 -5.69766
rtoes 16.3579
lfemur 16.7765 -2.31373 -36.7014
ltibia 9.71267
lfoot -20.3766 -3.91316
ltoes -1.04443
701
root 8.03892 16.6931 2.02713 368.886 38.752 377.038
lowerback 7.80324 -0.0626758 -17.4211
upperback 3.1928 -1.28738 -2.65351
thorax -0.614295 -0.730067 7.0163
lowerneck -21.706 5.96999 7.57583
upperneck 30.6021 7.88163 -5.09833
head 14.7667 3.6102 -1.85685
rclavicle -1.1577e-013 -3.01656e-014
rhumerus -57.7183 -14.1735 -67.7273
rradius 26.2791
rwrist 6.0516
rhand -10.3648 -28.4982
rfingers 7.12502
rthumb 15.6323 -57.8866
lclavicle -1.1577e-013 -3.01656e-014
lhumerus -11.1679 -18.3666 79.8482
lradius 59.5245
lwrist 9.65896
lhand -21.9789 -29.0738
lfingers 7.12502
lthumb 4.42913 0.859846
rfemur -23.2189 -3.19248 -4.33039
rtibia 8.71804
rfoot -7.51073 -4.2232
rtoes 18.2288
lfemur 17.1765 -2.65094 -37.1191
ltibia 9.91835
lfoot -20.786 -4.24998
ltoes -0.825666
702
root 8.149 16.6546 2.17764 369.207 39.0638 377.371
lowerback 7.78496 -0.0950253 -17.4949
upperback 3.19386 -1.33004 -2.65048
thorax -0.589184 -0.753365 7.06238
lowerneck -21.8058 5.96242 7.49927
upperneck 30.5331 7.93024 -5.21821
head 14.7639 3.60287 -1.88106
rclavicle 2.21e-014 1.67771e-014
rhumerus -57.7575 -14.3738 -67.1365
rradius 25.9535
rwrist 7.2369
rhand -9.74327 -28.4076
rfingers 7.12502
rthumb 16.2309 -57.7482
lclavicle 2.21e-014 1.67771e-014
lhumerus -11.189 -18.4113 80.1962
lradius 59.7747
lwrist 9.4158
lhand -21.8276 -29.6271
lfingers 7.12502
lthumb 4.57527 0.303505
rfemur -23.3031 -3.91209 -4.91725
rtibia 7.94347
rfoot -8.35325 -2.19201
rtoes 19.0454
lfemur 18.4349 -5.17236 -38.8068
ltibia 9.2094
lfoot -21.1725 -1.66303
ltoes -1.55381
